<svg xmlns="http://www.w3.org/2000/svg" viewBox="0 0 2856.43 1260.36"><g id="Layer_2" data-name="Layer 2"><g id="Layer_1-2" data-name="Layer 1"><path d="M0,1011.35H84l49.39,82.6,49.39-82.6h83.46l-95.14,142.19V1256H95.31V1153.54L0,1011.35Zm301.59,122.48q0-59.89,33.38-93.26t93-33.38q61.11,0,94.17,32.81t33,91.84q0,42.89-14.47,70.35a103.11,103.11,0,0,1-41.7,42.73c-18.23,10.2-40.84,15.27-68,15.27q-41.35,0-68.53-13.16t-44-41.76q-16.83-28.55-16.86-71.44Zm75.65.34c0,24.73,4.56,42.44,13.73,53.27s21.71,16.18,37.49,16.18q24.35,0,37.71-15.84c8.88-10.6,13.39-29.57,13.39-56.91q0-34.61-14-50.53t-37.83-15.9c-15.21,0-27.45,5.36-36.68,16.18s-13.85,28.66-13.85,53.55Zm418.89-122.82h75.48v145.9a123.12,123.12,0,0,1-6.78,41,88.73,88.73,0,0,1-21.19,33.72c-9.63,9.63-19.71,16.35-30.31,20.28-14.7,5.41-32.3,8.15-52.92,8.15a324.07,324.07,0,0,1-39-2.51q-21.11-2.47-35.26-9.91a89,89,0,0,1-26-21.14q-11.79-13.66-16.12-28.2-7-23.32-7-41.35v-145.9h75.49v149.37q0,20.08,11.05,31.27t30.82,11.29c13,0,23.24-3.71,30.65-11.11s11-17.89,11-31.45V1011.35ZM963.73,1256V1011.35h126q35,0,53.55,6a56.82,56.82,0,0,1,29.91,22.27q11.35,16.24,11.34,39.6c0,13.61-2.91,25.29-8.66,35.14a68.7,68.7,0,0,1-23.87,24c-6.5,3.87-15.33,7.12-26.55,9.63,9,3,15.55,6,19.71,9q4.11,3,12.08,12.82c5.29,6.61,8.83,11.62,10.59,15.21l36.58,70.93H1119l-40.39-74.8c-5.13-9.63-9.69-16-13.73-18.86a31.79,31.79,0,0,0-18.52-5.64h-6.66V1256Zm75.94-145.55h31.9c3.42,0,10.08-1.09,20-3.31a20.33,20.33,0,0,0,12.3-7.69,22.77,22.77,0,0,0,4.73-14.19c0-7.92-2.51-14-7.52-18.17s-14.42-6.38-28.2-6.38h-33.21v49.74Zm344.14-99.13h141.56q35.39,0,54.29,17.55t19,43.35q0,21.7-13.51,37.26-9.06,10.34-26.37,16.34,26.31,6.33,38.79,21.77t12.42,38.79a67,67,0,0,1-8.83,34.24,65.32,65.32,0,0,1-24.21,24q-9.48,5.47-28.71,8-25.56,3.33-33.9,3.36H1383.81V1011.35Zm76.28,96H1493q17.68,0,24.66-6.1c4.62-4.1,6.9-10,6.9-17.6,0-7.12-2.28-12.7-6.9-16.69s-12.7-6-24.15-6h-33.38v46.43Zm0,96.11h38.56c13,0,22.22-2.28,27.52-6.9s8-10.82,8-18.63c0-7.23-2.62-13-7.92-17.43s-14.52-6.61-27.8-6.61h-38.39v49.57ZM1691.61,1256V1011.35h126q35,0,53.55,6a56.82,56.82,0,0,1,29.91,22.27q11.36,16.24,11.33,39.6c0,13.61-2.9,25.29-8.65,35.14a68.78,68.78,0,0,1-23.87,24c-6.5,3.87-15.33,7.12-26.55,9.63,9,3,15.55,6,19.71,9,2.73,2,6.78,6.27,12.08,12.82s8.82,11.62,10.59,15.21l36.57,70.93h-85.45l-40.39-74.8c-5.12-9.63-9.68-16-13.73-18.86a31.74,31.74,0,0,0-18.51-5.64h-6.67V1256Zm75.93-145.55h31.91c3.41,0,10.08-1.09,20-3.31a20.32,20.32,0,0,0,12.31-7.69,22.76,22.76,0,0,0,4.72-14.19c0-7.92-2.5-14-7.52-18.17s-14.41-6.38-28.19-6.38h-33.22v49.74Zm380.55,105.16H2062L2050.1,1256h-77.24l91.94-244.68h82.43l92,244.68h-79.13l-12-40.39Zm-15.84-52.93-27.06-88-26.89,88ZM2305,1011.35h70.64l92.11,135.35V1011.35H2539V1256h-71.27l-91.65-134.33V1256H2305V1011.35Zm326.31,0h112.34q33.16,0,53.66,9a87.59,87.59,0,0,1,33.79,25.87,108.42,108.42,0,0,1,19.37,39.24,183.21,183.21,0,0,1,6,47.4q0,39.23-8.95,60.84a99.29,99.29,0,0,1-24.78,36.18q-15.81,14.61-34,19.48-24.87,6.67-45.06,6.67H2631.29V1011.35Zm75.6,55.43v133.65h18.51c15.84,0,27.06-1.71,33.73-5.25s11.9-9.62,15.72-18.34,5.64-22.9,5.64-42.5q0-38.88-12.65-53.21t-42.1-14.35Z" fill="#231f20"/><path d="M816.36,159.19v-35.4h189.36s186.86-91.92,221.39-100.37,212.1-47.21,360.25-1.66c0,0,154.89,67.43,204.53,91.9,0,0-203.68-70-267.65-73.36s-176.77-10.14-284.51,13.47L1016.68,159.19Z" fill="#fff" fill-rule="evenodd"/><polygon points="2040.07 154.97 2040.07 186.19 1255.73 186.19 1170.71 156.66 1672.38 156.66 1577.26 97.64 1781.8 154.97 2040.07 154.97" fill="#fff" fill-rule="evenodd"/><path d="M988.71,214c48.24,0,72.57,41.23,54.32,92s-72.2,92-120.47,92-72.58-41.22-54.3-92S940.46,214,988.71,214Z" fill="#fff" fill-rule="evenodd"/><path d="M1939,214c48.27,0,72.58,41.23,54.32,92s-72.21,92-120.45,92-72.59-41.22-54.32-92S1890.78,214,1939,214Z" fill="#fff" fill-rule="evenodd"/><path d="M1092.35,299.24l667.33-1.62c-1.22,2.77-1.45,3.09-3.39,8.42a125.55,125.55,0,0,0-5.48,22.7H1079.32a127,127,0,0,0,10.85-22.7C1091,303.76,1091.7,301.48,1092.35,299.24Z" fill="#fff" fill-rule="evenodd"/></g></g></svg>