<svg xmlns="http://www.w3.org/2000/svg" viewBox="0 0 2492.7 1020.99"><g id="Layer_2" data-name="Layer 2"><g id="Layer_1-2" data-name="Layer 1"><polygon points="1657.85 2.24 2492.7 1020.99 0 1020.99 834.85 2.24 1657.85 2.24" fill="#231f20"/><polygon points="290.14 1020.97 140.31 1020.97 881.18 2.24 930.64 2.24 290.14 1020.97" fill="#fff"/><polygon points="2350.21 1020.98 2200.38 1020.98 1561.33 2.24 1610.8 2.24 2350.21 1020.98" fill="#fff"/><line x1="1246.35" x2="1246.35" y2="885.79" fill="none"/><polygon points="1268.72 25.98 1223.98 25.98 1224.99 2.24 1267.71 2.24 1268.72 25.98" fill="#fff"/><path d="M1189.1,845.93,1181.65,1021h129.4l-7.45-175.06Zm15.15-356.13-9,212h102.24l-9-212Zm8.81-207.08-5.4,126.87H1285l-5.4-126.87Zm5.76-135.42-3.59,84.39h62.24l-3.59-84.39Zm4.06-95.47L1220.32,112h52.06l-2.56-60.18Z" fill="#fff"/></g></g></svg>