<svg xmlns="http://www.w3.org/2000/svg" viewBox="0 0 686.23 336.55"><g id="Layer_2" data-name="Layer 2"><g id="_1" data-name="1"><path d="M185.34,258.87,251.75,265,325.26,91.45l233.81,11.18c6.12,16.33,14.31,33.71,22.48,50.1l-218.52-2L298.67,330.34l-149-9.13C160.85,302.83,174.12,281.38,185.34,258.87Z" fill="#707384"/><path d="M298.67,336h-.34l-149-9.13a5.65,5.65,0,0,1-4.46-8.57l2-3.34c10.77-17.64,23-37.63,33.42-58.57a5.67,5.67,0,0,1,5.56-3.1L248.16,259,320.08,89.25a5.68,5.68,0,0,1,5.46-3.43L559.34,97a5.66,5.66,0,0,1,5,3.65c6.68,17.83,15.89,36.83,22.24,49.57a5.63,5.63,0,0,1-5,8.15h0l-214.52-2L304,332.24A5.64,5.64,0,0,1,298.67,336ZM159.33,316.16l135.47,8.3,62.93-175.68a5.63,5.63,0,0,1,5.35-3.73l209.36,2c-5.49-11.26-12-25.25-17.32-38.93L328.92,97.26l-72,169.93a5.63,5.63,0,0,1-5.7,3.41l-62.59-5.77C179.33,283.11,168.89,300.48,159.33,316.16Z"/><path d="M109.78,15.82C51.57,15.82,5.64,60.78,5.64,117s97,209.3,97,209.3c3.1,6.18,9.21,6.18,13.28,0,0,0,98-153.16,98-209.3S167,15.82,109.78,15.82Z" fill="#e84c3d"/><path d="M108.89,336.55c-4.64,0-8.7-2.72-11.17-7.48C92.07,320.13,0,173.55,0,117A104.84,104.84,0,0,1,31.94,41.29c20.61-20,48.25-31.1,77.84-31.1C170.3,10.19,219.53,58.1,219.53,117c0,57.14-94.85,206-98.89,212.33C117.61,333.93,113.34,336.55,108.89,336.55Zm.89-315.09c-55.24,0-98.5,42-98.5,95.52,0,53.89,95.13,204.76,96.1,206.28.1.16.19.33.27.49.59,1.17,1.13,1.51,1.24,1.53h0c.19,0,1.15-.36,2.3-2.1.93-1.46,97.07-152.34,97.07-206.2C208.26,64.31,164.08,21.46,109.78,21.46Z"/><path d="M623.4,5.64c-32.67,0-58.21,24.54-58.21,56.2,0,30.6,54.12,115.37,54.12,115.37,2.05,4.07,5.15,4.07,7.15,0,0,0,54.14-84.77,54.14-115.37C680.6,30.18,655.06,5.64,623.4,5.64Z" fill="#e84c3d"/><path d="M622.9,185.9c-1.63,0-5.68-.58-8.47-5.88-3.73-5.83-54.88-86.79-54.88-118.18,0-34.68,28-61.84,63.85-61.84,35.23,0,62.83,27.16,62.83,61.84,0,31.36-51,112.15-54.87,118.17C628.61,185.32,624.54,185.9,622.9,185.9Zm.5-174.63c-29.48,0-52.57,22.21-52.57,50.57,0,23.15,36.49,85.84,52,110.49C638.45,147.67,675,85,675,61.84,675,33.48,652.31,11.27,623.4,11.27Z"/><path d="M162.82,106.72c0-29.68-23.21-52.9-52.9-52.9-31,0-54.17,23.22-54.17,52.9s23.18,53,54.17,53C139.61,159.69,162.82,136.41,162.82,106.72Z" fill="#fff8d1"/><path d="M109.92,165.33c-33.53,0-59.8-25.75-59.8-58.61a57.78,57.78,0,0,1,17.14-41.6c11.1-10.92,26.25-16.94,42.66-16.94,32.83,0,58.54,25.71,58.54,58.54S142.75,165.33,109.92,165.33Zm0-105.88c-27.67,0-48.53,20.33-48.53,47.27s20.86,47.34,48.53,47.34a47.31,47.31,0,0,0,0-94.61Z"/><path d="M653.12,55.57c0-15.55-14.24-28.42-29.69-28.42-16.78,0-29.72,12.87-29.72,28.42,0,16.76,12.94,29.62,29.72,29.62C638.88,85.19,653.12,72.33,653.12,55.57Z" fill="#fff8d1"/><path d="M623.43,90.83a34.93,34.93,0,0,1-35.36-35.26c0-18.78,15.86-34,35.36-34,18.81,0,35.32,15.91,35.32,34.05C658.75,74.68,642.58,90.83,623.43,90.83Zm0-58c-13.51,0-24.09,10-24.09,22.78,0,13.68,10.36,24,24.09,24a24.34,24.34,0,0,0,24.05-24C647.48,43.43,636.24,32.79,623.43,32.79Z"/><path d="M395.68,127.4h-.21l-26.38-1a5.63,5.63,0,0,1,.42-11.26l26.38,1a5.63,5.63,0,0,1-.21,11.26Z"/><path d="M443.93,129.24h-.21l-26.33-1a5.63,5.63,0,0,1,.42-11.26l26.33,1a5.64,5.64,0,0,1-.21,11.27Z"/><path d="M492.2,131.06H492l-26.39-1a5.64,5.64,0,0,1,.21-11.27H466l26.38,1a5.64,5.64,0,0,1-.2,11.27Z"/><path d="M540.38,133h-.23l-26.3-1.06a5.64,5.64,0,0,1,.45-11.27l26.31,1.06a5.64,5.64,0,0,1-.23,11.27Z"/><path d="M335.52,158.85a5.65,5.65,0,0,1-5.2-7.81l10.14-24.33A5.64,5.64,0,0,1,350.87,131l-10.15,24.34A5.64,5.64,0,0,1,335.52,158.85Z"/><path d="M317,203.46a5.81,5.81,0,0,1-2.15-.43,5.65,5.65,0,0,1-3-7.38l10.12-24.34a5.64,5.64,0,0,1,10.42,4.32L322.2,200A5.65,5.65,0,0,1,317,203.46Z"/><path d="M298.52,248.05a5.63,5.63,0,0,1-5.2-7.8l10.14-24.33a5.63,5.63,0,1,1,10.4,4.33l-10.13,24.34A5.65,5.65,0,0,1,298.52,248.05Z"/><path d="M280,292.65a5.66,5.66,0,0,1-5.2-7.8l10.1-24.33a5.63,5.63,0,1,1,10.4,4.31l-10.09,24.34A5.63,5.63,0,0,1,280,292.65Z"/><path d="M254.62,303.48h-.21l-26.37-1a5.63,5.63,0,0,1,.42-11.26l26.37,1a5.64,5.64,0,0,1-.21,11.27Z"/><path d="M207.22,302.85H207l-26.38-.92a5.63,5.63,0,1,1,.39-11.26l26.38.91a5.64,5.64,0,0,1-.19,11.27Z"/></g></g></svg>