<svg xmlns="http://www.w3.org/2000/svg" viewBox="0 0 2838.65 609.66"><g id="Layer_2" data-name="Layer 2"><g id="Layer_1-2" data-name="Layer 1"><path d="M2615.34,598.79a10.52,10.52,0,0,1-4.29-.92c-.07,0-1.87-.83-5.32-2.29a10.57,10.57,0,0,1,8.23-19.47c3.7,1.56,5.61,2.41,5.69,2.45a10.57,10.57,0,0,1-4.31,20.23Z" fill="#d1d3d4"/><path d="M264.51,582.16a10.57,10.57,0,0,1-3.77-20.45q5.33-2,11.31-4.27a10.57,10.57,0,1,1,7.39,19.81q-5.91,2.21-11.17,4.21A10.38,10.38,0,0,1,264.51,582.16ZM2573.76,582a10.6,10.6,0,0,1-3.76-.7q-5.27-2-11.17-4.21a10.57,10.57,0,0,1,7.38-19.81q6,2.24,11.32,4.27a10.57,10.57,0,0,1-3.77,20.45ZM312.32,564.72a10.57,10.57,0,0,1-3.49-20.55q5.54-1.93,11.41-3.95a10.57,10.57,0,1,1,6.86,20q-5.81,2-11.29,3.92A10.7,10.7,0,0,1,312.32,564.72ZM2526,564.59a10.6,10.6,0,0,1-3.48-.59q-5.49-1.92-11.3-3.91a10.57,10.57,0,1,1,6.86-20q5.86,2,11.41,3.94a10.58,10.58,0,0,1-3.49,20.56Zm-2165.4-16.1a10.57,10.57,0,0,1-3.26-20.63l11.48-3.69a10.57,10.57,0,1,1,6.42,20.15q-5.81,1.84-11.38,3.66A10.65,10.65,0,0,1,360.55,548.49Zm2117.18-.12a10.56,10.56,0,0,1-3.26-.51q-5.59-1.82-11.39-3.66a10.57,10.57,0,1,1,6.41-20.15l11.49,3.69a10.57,10.57,0,0,1-3.25,20.63ZM409.1,533.31a10.58,10.58,0,0,1-3.05-20.7q5.7-1.71,11.56-3.46a10.57,10.57,0,0,1,6,20.27q-5.82,1.73-11.47,3.43A10.42,10.42,0,0,1,409.1,533.31Zm2020.06-.12a10.44,10.44,0,0,1-3-.45q-5.66-1.71-11.46-3.43a10.57,10.57,0,1,1,6-20.27q5.87,1.74,11.55,3.46a10.57,10.57,0,0,1-3.05,20.69ZM458,519.06a10.57,10.57,0,0,1-2.87-20.75l11.62-3.25a10.57,10.57,0,0,1,5.64,20.38l-11.52,3.22A10.57,10.57,0,0,1,458,519.06ZM2380.32,519a10.62,10.62,0,0,1-2.87-.4l-11.52-3.22a10.57,10.57,0,1,1,5.64-20.37c3.92,1.08,7.79,2.17,11.61,3.24a10.57,10.57,0,0,1-2.86,20.75ZM507,505.69a10.57,10.57,0,0,1-2.68-20.8l11.66-3a10.57,10.57,0,1,1,5.3,20.47l-11.58,3A10.48,10.48,0,0,1,507,505.69Zm1824.21-.1a10.48,10.48,0,0,1-2.7-.35l-11.58-3a10.57,10.57,0,0,1,5.29-20.47l11.67,3a10.57,10.57,0,0,1-2.68,20.8ZM556.34,493.16a10.57,10.57,0,0,1-2.51-20.84l11.71-2.85a10.57,10.57,0,0,1,5,20.55l-11.63,2.83A10.55,10.55,0,0,1,556.34,493.16Zm1725.59-.09a10.55,10.55,0,0,1-2.53-.31l-11.63-2.83a10.57,10.57,0,0,1,5-20.55l11.71,2.85a10.57,10.57,0,0,1-2.51,20.84ZM605.84,481.44a10.57,10.57,0,0,1-2.35-20.88c3.9-.89,7.81-1.78,11.76-2.66a10.57,10.57,0,1,1,4.63,20.62l-11.68,2.65A10.62,10.62,0,0,1,605.84,481.44Zm1626.59-.09a10.62,10.62,0,0,1-2.36-.27l-11.68-2.64a10.57,10.57,0,0,1,4.63-20.63l11.75,2.66a10.57,10.57,0,0,1-2.34,20.88ZM655.52,470.49a10.57,10.57,0,0,1-2.19-20.91q5.86-1.24,11.79-2.48a10.57,10.57,0,0,1,4.32,20.7l-11.72,2.46A10.41,10.41,0,0,1,655.52,470.49Zm1527.23-.08a10.35,10.35,0,0,1-2.2-.23l-11.72-2.46a10.57,10.57,0,0,1,4.31-20.7q5.94,1.23,11.79,2.48a10.57,10.57,0,0,1-2.18,20.91ZM705.36,460.31a10.57,10.57,0,0,1-2-20.94q5.88-1.15,11.83-2.3a10.57,10.57,0,0,1,4,20.76l-11.75,2.28A10.32,10.32,0,0,1,705.36,460.31Zm1427.55-.07a11.12,11.12,0,0,1-2-.2q-5.84-1.16-11.75-2.29a10.57,10.57,0,0,1,4-20.76l11.83,2.3a10.58,10.58,0,0,1-2,20.95ZM755.34,450.88a10.57,10.57,0,0,1-1.87-21q5.89-1.08,11.86-2.13A10.57,10.57,0,0,1,769,448.6l-11.78,2.11A11.18,11.18,0,0,1,755.34,450.88Zm1327.59-.07a10.25,10.25,0,0,1-1.9-.17l-11.78-2.11a10.57,10.57,0,1,1,3.69-20.82c4,.71,7.92,1.41,11.86,2.13a10.57,10.57,0,0,1-1.87,21ZM805.46,442.18a10.57,10.57,0,0,1-1.72-21c3.94-.65,7.91-1.31,11.89-1.95A10.57,10.57,0,1,1,819,440.1q-5.94,1-11.81,1.94A11.57,11.57,0,0,1,805.46,442.18Zm1227.35-.06a10.43,10.43,0,0,1-1.75-.15L2019.25,440a10.57,10.57,0,1,1,3.39-20.87l11.89,2a10.57,10.57,0,0,1-1.72,21ZM855.7,434.21a10.57,10.57,0,0,1-1.57-21L866,411.4a10.57,10.57,0,0,1,3.1,20.91l-11.85,1.78A10.74,10.74,0,0,1,855.7,434.21Zm1126.87-.06A10.64,10.64,0,0,1,1981,434c-3.94-.6-7.88-1.19-11.85-1.77a10.57,10.57,0,0,1,3.1-20.92l11.91,1.78a10.57,10.57,0,0,1-1.57,21ZM906,427a10.57,10.57,0,0,1-1.42-21.05l11.94-1.61a10.57,10.57,0,0,1,2.8,20.95l-11.87,1.61A11.91,11.91,0,0,1,906,427Zm1026.19-.06a11.88,11.88,0,0,1-1.45-.09l-11.87-1.61a10.57,10.57,0,0,1,2.8-21l11.94,1.62a10.57,10.57,0,0,1-1.42,21Zm-975.75-6.5a10.57,10.57,0,0,1-1.27-21.06l11.95-1.45a10.57,10.57,0,0,1,2.51,21l-11.88,1.44A9.7,9.7,0,0,1,956.48,420.39Zm925.3,0a11.48,11.48,0,0,1-1.3-.08q-5.91-.74-11.89-1.44a10.57,10.57,0,0,1,2.51-21l12,1.45a10.57,10.57,0,0,1-1.28,21.07ZM1007,414.54a10.57,10.57,0,0,1-1.13-21.08l12-1.28a10.57,10.57,0,1,1,2.22,21l-11.9,1.28A11.41,11.41,0,0,1,1007,414.54Zm824.25,0a11.41,11.41,0,0,1-1.16-.06l-11.9-1.28a10.57,10.57,0,1,1,2.21-21l12,1.28a10.57,10.57,0,0,1-1.13,21.08Zm-773.65-5.12a10.57,10.57,0,0,1-1-21.09l12-1.12a10.57,10.57,0,1,1,1.93,21.05l-11.93,1.12C1058.29,409.37,1058,409.38,1057.61,409.38Zm723,0c-.33,0-.67,0-1-.05q-5.94-.57-11.92-1.11a10.57,10.57,0,0,1,1.93-21.06l12,1.12a10.57,10.57,0,0,1-1,21.1Zm-672.37-4.43a10.57,10.57,0,0,1-.84-21.11c4-.33,8-.64,12-1a10.57,10.57,0,0,1,1.65,21.08l-11.94.95A8.44,8.44,0,0,1,1108.28,404.92Zm621.71,0c-.29,0-.58,0-.87,0l-11.94-1a10.57,10.57,0,0,1,1.65-21.08c4,.32,8,.63,12,1a10.57,10.57,0,0,1-.84,21.11Zm-571-3.75a10.57,10.57,0,0,1-.71-21.12l12-.8a10.57,10.57,0,1,1,1.36,21.1l-12,.79Zm520.25,0q-.36,0-.72,0c-4-.26-8-.53-12-.78a10.57,10.57,0,1,1,1.36-21.1l12,.79a10.57,10.57,0,0,1-.71,21.12ZM1209.77,398a10.57,10.57,0,0,1-.56-21.12l12-.64a10.57,10.57,0,0,1,1.08,21.12q-6,.3-12,.63Zm418.72,0h-.58q-6-.33-12-.63a10.57,10.57,0,1,1,1.08-21.12l12,.64a10.57,10.57,0,0,1-.57,21.12Zm-367.91-2.4a10.57,10.57,0,0,1-.42-21.13q6-.25,12-.48a10.57,10.57,0,0,1,.8,21.13l-12,.47Zm317.11,0h-.44c-4-.17-8-.32-12-.48a10.57,10.57,0,1,1,.8-21.12l12,.47a10.57,10.57,0,0,1-.42,21.14Zm-266.27-1.74a10.57,10.57,0,0,1-.29-21.14q6-.17,12-.31h.27a10.57,10.57,0,0,1,.26,21.14l-12,.32Zm215.43,0h-.3q-6-.18-12-.32a10.57,10.57,0,0,1,.52-21.13q6,.14,12,.31a10.57,10.57,0,0,1-.29,21.14Zm-164.58-1.07a10.57,10.57,0,0,1-.15-21.14l12-.16h.12a10.57,10.57,0,0,1,.12,21.14l-12,.16Zm113.73,0h-.16c-4,0-8-.11-12-.15a10.57,10.57,0,0,1,.24-21.14q6,.06,12,.15a10.57,10.57,0,0,1-.15,21.14Zm-62.87-.4a10.58,10.58,0,0,1,0-21.15h12a10.58,10.58,0,0,1,0,21.15h-12Z" fill="#d1d3d4"/><path d="M223.31,598.79A10.57,10.57,0,0,1,219,578.56c.08,0,2-.89,5.69-2.45a10.57,10.57,0,0,1,8.23,19.47c-3.49,1.48-5.3,2.28-5.32,2.29A10.52,10.52,0,0,1,223.31,598.79Z" fill="#d1d3d4"/><path d="M418.68,115.09c-.55-1-1.1-2-1.66-2.94l-1.36-2.33c-.91-1.54-1.85-3.08-2.8-4.6s-1.91-3-2.9-4.53-2-3-3-4.46c-.51-.74-1-1.47-1.54-2.2q-1.56-2.18-3.17-4.34c-.53-.71-1.07-1.43-1.62-2.13-1.09-1.43-2.19-2.83-3.31-4.22-1.26-1.57-2.55-3.12-3.85-4.65q-4.89-5.75-10.15-11.15c-.7-.72-1.4-1.43-2.11-2.14a223.74,223.74,0,0,0-68.48-46.78q-2.49-1.1-5-2.11A222.46,222.46,0,0,0,223.31,0C100,0,0,100,0,223.3c0,.85,0,1.68,0,2.52C.68,298.27,30.1,358.4,67.39,405.63c1.68,2.14,3.39,4.25,5.1,6.34.8,1,1.59,1.92,2.4,2.88s1.6,1.9,2.41,2.85,1.54,1.8,2.32,2.69l.24.28c.64.74,1.29,1.47,1.94,2.21s1.35,1.53,2,2.28S85,426.4,85.51,427q1.5,1.68,3,3.31L91.07,433l2.82,3c1.89,1.95,3.77,3.88,5.67,5.77,57.11,57.28,118.55,88,123.58,90.44l.17.08.16-.08c5-2.47,66.47-33.16,123.58-90.44l2.84-2.86c1.88-1.93,3.77-3.89,5.64-5.87.83-.88,1.65-1.76,2.47-2.65,1-1.11,2.07-2.23,3.09-3.37.57-.61,1.12-1.23,1.68-1.85l2-2.28,1.93-2.21a2.62,2.62,0,0,0,.22-.25q2.4-2.75,4.76-5.57l2.4-2.88c1.72-2.09,3.41-4.2,5.1-6.34l1.68-2.14c36.49-46.9,65-106.31,65.69-177.67,0-.84,0-1.67,0-2.52a222.31,222.31,0,0,0-23.22-99.24Q421.14,119.52,418.68,115.09ZM223.31,381.79a158.4,158.4,0,1,1,158.4-158.4A158.4,158.4,0,0,1,223.31,381.79Z" fill="#fc6763"/><circle cx="223.3" cy="588.21" r="21.45" transform="translate(-350.52 330.18) rotate(-45)" fill="#fc6763"/><path d="M2810.72,115.09c-.54-1-1.1-2-1.66-2.94l-1.36-2.33c-.91-1.54-1.84-3.08-2.8-4.6s-1.91-3-2.9-4.53-2-3-3-4.46c-.51-.74-1-1.47-1.54-2.2-1-1.45-2.09-2.9-3.17-4.34-.53-.71-1.07-1.43-1.62-2.13-1.09-1.43-2.19-2.83-3.31-4.22q-1.89-2.36-3.85-4.65-4.87-5.75-10.15-11.15c-.69-.72-1.4-1.43-2.11-2.14a223.62,223.62,0,0,0-68.48-46.78q-2.49-1.1-5-2.11A222.47,222.47,0,0,0,2615.35,0C2492,0,2392,100,2392,223.3c0,.85,0,1.68,0,2.52.67,72.45,30.08,132.58,67.37,179.81,1.68,2.14,3.39,4.25,5.1,6.34l2.4,2.88c.8,1,1.61,1.9,2.41,2.85s1.54,1.8,2.32,2.69l.24.28,1.94,2.21q1,1.15,2,2.28c.56.62,1.11,1.24,1.68,1.85,1,1.12,2,2.22,3,3.31.84.91,1.68,1.81,2.53,2.71s1.88,2,2.82,3c1.88,1.95,3.77,3.88,5.66,5.77,57.11,57.28,118.55,88,123.58,90.44l.17.08.16-.08c5-2.47,66.47-33.16,123.58-90.44l2.84-2.86q2.84-2.89,5.64-5.87c.83-.88,1.65-1.76,2.47-2.65q1.56-1.67,3.09-3.37c.57-.61,1.12-1.23,1.68-1.85s1.36-1.51,2-2.28l1.94-2.21.21-.25c1.6-1.83,3.2-3.69,4.76-5.57l2.4-2.88q2.58-3.14,5.1-6.34l1.68-2.14c36.49-46.9,65-106.31,65.69-177.67,0-.84,0-1.67,0-2.52a222.31,222.31,0,0,0-23.22-99.24Q2813.18,119.52,2810.72,115.09Zm-195.37,266.7a158.4,158.4,0,1,1,158.4-158.4A158.4,158.4,0,0,1,2615.35,381.79Z" fill="#fc6763"/><circle cx="2615.34" cy="588.21" r="21.45" transform="translate(350.09 2021.61) rotate(-45)" fill="#fc6763"/></g></g></svg>