<svg id="user_4_" data-name="user (4)" xmlns="http://www.w3.org/2000/svg" width="17.5" height="23.333" viewBox="0 0 17.5 23.333">
  <path id="Path_34" data-name="Path 34" d="M11.833,11.667A5.833,5.833,0,1,0,6,5.833a5.833,5.833,0,0,0,5.833,5.833Zm0-9.722A3.889,3.889,0,1,1,7.944,5.833a3.889,3.889,0,0,1,3.889-3.889Z" transform="translate(-3.083)" fill="#2F8F61"/>
  <path id="Path_35" data-name="Path 35" d="M11.75,14A8.76,8.76,0,0,0,3,22.75a.972.972,0,1,0,1.944,0,6.806,6.806,0,0,1,13.611,0,.972.972,0,0,0,1.944,0A8.76,8.76,0,0,0,11.75,14Z" transform="translate(-3 -0.389)" fill="#2F8F61"/>
</svg>
